# xmcd
#
# Track frame offsets: 
#        150
#        12668
#        29837
#        43515
#        61463
#        82415
#        104267
#        118551
#        138646
#        149320
#        172674
#        186316
#        201414
#        213984
#        227033
#        244428
#        257095
#        269131
#        287434
#        304475
#        318729
#
# Disc length: 4495 seconds
#
# Revision: 0
# Processed by: cddbd v1.5.2PL0 Copyright (c) Steve Scherf et al.
# Submitted via: ExactAudioCopy v0.99pb5
#
DISCID=55118d15
DTITLE=Nazz  - Nazz (1968)  
DYEAR=1900
DGENRE=
TTITLE0=Open My Eyes
TTITLE1=Back Of Your Mind
TTITLE2=See What You Can Be
TTITLE3=Hello It's Me
TTITLE4=Wildwood Blues
TTITLE5=If That's The Way You Feel
TTITLE6=When I Get My Plane
TTITLE7=Lemming Song
TTITLE8=Crowded
TTITLE9=She's Going Down
TTITLE10=Nazz Radio Commercials
TTITLE11=Train Kept A Rollin' (Album Outtake)
TTITLE12=Magic Me (Pre-LP Audition Tape)
TTITLE13=See What You Can Be (Pre-LP Audition Tape)
TTITLE14=Hello It's Me (1967 Demo)
TTITLE15=Crowded (1967 Demo)
TTITLE16=Open My Eyes (Non-Phased Demo)
TTITLE17=Lemming (Acetate Demo)
TTITLE18=The Nazz Are Blue (Un-Released Live)
TTITLE19=Why Is It Me (Early Version Of  'Lemming Song', Performed By 
TTITLE19=Woody's Truck Stop In 1966)
TTITLE20=Hello It's Me (Mono Single Mix)
EXTD=
EXTT0=
EXTT1=
EXTT2=
EXTT3=
EXTT4=
EXTT5=
EXTT6=
EXTT7=
EXTT8=
EXTT9=
EXTT10=
EXTT11=
EXTT12=
EXTT13=
EXTT14=
EXTT15=
EXTT16=
EXTT17=
EXTT18=
EXTT19=
EXTT20=
PLAYORDER=
